<mxfile host="Electron" modified="2024-06-25T14:25:33.215Z" agent="Mozilla/5.0 (Windows NT 10.0; Win64; x64) AppleWebKit/537.36 (KHTML, like Gecko) draw.io/24.6.1 Chrome/124.0.6367.207 Electron/30.0.6 Safari/537.36" etag="E_NlVMzT3vEeJgbH_KIX" version="24.6.1" type="device">
  <diagram name="Page-1" id="nYnXMWnMa56crzIKCHE6">
    <mxGraphModel dx="979" dy="879" grid="1" gridSize="10" guides="1" tooltips="1" connect="1" arrows="1" fold="1" page="1" pageScale="1" pageWidth="700" pageHeight="550" math="0" shadow="0">
      <root>
        <mxCell id="0" />
        <mxCell id="1" parent="0" />
        <mxCell id="psX_TMWhQ0xsorYOk14J-1" value="" style="rounded=0;whiteSpace=wrap;html=1;fillColor=#f5f5f5;strokeColor=#666666;fontColor=#333333;" vertex="1" parent="1">
          <mxGeometry x="50" y="20" width="600" height="480" as="geometry" />
        </mxCell>
        <mxCell id="psX_TMWhQ0xsorYOk14J-17" value="" style="rounded=0;whiteSpace=wrap;html=1;fillColor=#e1d5e7;strokeColor=#9673a6;" vertex="1" parent="1">
          <mxGeometry x="250" y="20" width="400" height="480" as="geometry" />
        </mxCell>
        <mxCell id="psX_TMWhQ0xsorYOk14J-18" value="" style="rounded=0;whiteSpace=wrap;html=1;fillColor=#d5e8d4;strokeColor=#82b366;" vertex="1" parent="1">
          <mxGeometry x="450" y="20" width="200" height="360" as="geometry" />
        </mxCell>
        <mxCell id="psX_TMWhQ0xsorYOk14J-19" value="Распределение воркеров" style="rounded=0;whiteSpace=wrap;html=1;fillColor=#f8cecc;strokeColor=#b85450;" vertex="1" parent="1">
          <mxGeometry x="490" y="80" width="120" height="30" as="geometry" />
        </mxCell>
        <mxCell id="psX_TMWhQ0xsorYOk14J-20" value="Найм воркеров" style="rounded=0;whiteSpace=wrap;html=1;fillColor=#f8cecc;strokeColor=#b85450;" vertex="1" parent="1">
          <mxGeometry x="490" y="160" width="120" height="20" as="geometry" />
        </mxCell>
        <mxCell id="psX_TMWhQ0xsorYOk14J-21" value="Контроль качества" style="rounded=0;whiteSpace=wrap;html=1;fillColor=#f8cecc;strokeColor=#b85450;" vertex="1" parent="1">
          <mxGeometry x="290" y="230" width="120" height="20" as="geometry" />
        </mxCell>
        <mxCell id="psX_TMWhQ0xsorYOk14J-22" value="Выполнение задач" style="rounded=0;whiteSpace=wrap;html=1;fillColor=#f8cecc;strokeColor=#b85450;" vertex="1" parent="1">
          <mxGeometry x="490" y="230" width="120" height="20" as="geometry" />
        </mxCell>
        <mxCell id="psX_TMWhQ0xsorYOk14J-23" value="Приём заявок" style="rounded=0;whiteSpace=wrap;html=1;fillColor=#f8cecc;strokeColor=#b85450;" vertex="1" parent="1">
          <mxGeometry x="90" y="230" width="120" height="20" as="geometry" />
        </mxCell>
        <mxCell id="psX_TMWhQ0xsorYOk14J-24" value="Снабжение воркеров" style="rounded=0;whiteSpace=wrap;html=1;fillColor=#f8cecc;strokeColor=#b85450;" vertex="1" parent="1">
          <mxGeometry x="90" y="340" width="120" height="30" as="geometry" />
        </mxCell>
        <mxCell id="psX_TMWhQ0xsorYOk14J-25" value="Мотивация менеджеров" style="rounded=0;whiteSpace=wrap;html=1;fillColor=#f8cecc;strokeColor=#b85450;" vertex="1" parent="1">
          <mxGeometry x="290" y="450" width="120" height="30" as="geometry" />
        </mxCell>
        <mxCell id="psX_TMWhQ0xsorYOk14J-26" value="" style="endArrow=classic;html=1;rounded=0;" edge="1" parent="1">
          <mxGeometry width="50" height="50" relative="1" as="geometry">
            <mxPoint x="50" y="520" as="sourcePoint" />
            <mxPoint x="650" y="520" as="targetPoint" />
          </mxGeometry>
        </mxCell>
        <mxCell id="psX_TMWhQ0xsorYOk14J-27" value="&lt;b&gt;BUSINESS DIFFERENTIATION&lt;/b&gt;" style="edgeLabel;html=1;align=center;verticalAlign=middle;resizable=0;points=[];" vertex="1" connectable="0" parent="psX_TMWhQ0xsorYOk14J-26">
          <mxGeometry x="0.0816" relative="1" as="geometry">
            <mxPoint x="-24" as="offset" />
          </mxGeometry>
        </mxCell>
        <mxCell id="psX_TMWhQ0xsorYOk14J-28" value="" style="endArrow=classic;html=1;rounded=0;" edge="1" parent="1">
          <mxGeometry width="50" height="50" relative="1" as="geometry">
            <mxPoint x="30" y="500" as="sourcePoint" />
            <mxPoint x="30" y="20" as="targetPoint" />
          </mxGeometry>
        </mxCell>
        <mxCell id="psX_TMWhQ0xsorYOk14J-29" value="&lt;b&gt;COMPLEXITY&lt;/b&gt;" style="edgeLabel;html=1;align=center;verticalAlign=middle;resizable=0;points=[];rotation=-90;" vertex="1" connectable="0" parent="psX_TMWhQ0xsorYOk14J-28">
          <mxGeometry x="0.0117" y="2" relative="1" as="geometry">
            <mxPoint as="offset" />
          </mxGeometry>
        </mxCell>
        <mxCell id="psX_TMWhQ0xsorYOk14J-31" value="&lt;b&gt;GENERIC&lt;/b&gt;" style="rounded=0;whiteSpace=wrap;html=1;" vertex="1" parent="1">
          <mxGeometry x="50" y="20" width="200" height="20" as="geometry" />
        </mxCell>
        <mxCell id="psX_TMWhQ0xsorYOk14J-32" value="&lt;b&gt;SUPPORTING&lt;/b&gt;" style="rounded=0;whiteSpace=wrap;html=1;" vertex="1" parent="1">
          <mxGeometry x="250" y="20" width="200" height="20" as="geometry" />
        </mxCell>
        <mxCell id="psX_TMWhQ0xsorYOk14J-33" value="&lt;b&gt;CORE&lt;/b&gt;" style="rounded=0;whiteSpace=wrap;html=1;" vertex="1" parent="1">
          <mxGeometry x="450" y="20" width="200" height="20" as="geometry" />
        </mxCell>
      </root>
    </mxGraphModel>
  </diagram>
</mxfile>
